ffmpeg started on 2026-01-13 at 12:03:14
Report written to "D:\Convert\FFMetrics\reports\psnr_report-6.txt"
Log level: 32
Command line:
ffmpeg -hide_banner -nostdin -r 24000/1001 -i "F:\\Convert\\files\\[DC] Make Heroine ga Oosugiru - 07_Telegram_HEVC(88).mkv" -r 24000/1001 -i "F:\\Convert\\files\\[DC] Make Heroine ga Oosugiru - 07_Telegram.mp4" -lavfi "[0:v]settb=AVTB,setpts=PTS-STARTPTS,format=pix_fmts=yuv420p10le,fps=24000/1001,scale=1920:1080:flags=lanczos:param0=3:out_range=limited:out_color_matrix=bt709:out_chroma_loc=left,setsar=1/1,setdar=(1920/1080)*(1/1),colorspace=format=yuv420p10:range=tv:primaries=bt709:trc=bt709:space=bt709:fast=0[main];[1:v]settb=AVTB,setpts=PTS-STARTPTS,format=pix_fmts=yuv420p,fps=24000/1001,scale=1920:1080:flags=lanczos:param0=3:out_range=limited:out_color_matrix=bt709:out_chroma_loc=left,setsar=1.000,setdar=1.778,colorspace=format=yuv420p:range=tv:primaries=bt709:trc=bt709:space=bt709:fast=0[ref];[main][ref]psnr=eof_action=endall:stats_file='D\\:/Convert/FFMetrics/logs/psnr_logfile-6.txt'" -f null -
Input #0, matroska,webm, from 'F:\Convert\files\[DC] Make Heroine ga Oosugiru - 07_Telegram_HEVC(88).mkv':
  Metadata:
    COMPATIBLE_BRANDS: isomiso2avc1mp41
    MAJOR_BRAND     : isom
    MINOR_VERSION   : 512
    ENCODER         : Lavf61.7.100
  Duration: 00:24:06.79, start: -0.021000, bitrate: 978 kb/s
  Stream #0:0: Video: hevc (Main 10), yuv420p10le(tv, bt709, progressive), 1920x1080 [SAR 1:1 DAR 16:9], 23.98 fps, 23.98 tbr, 1k tbn (default)
      Metadata:
        HANDLER_NAME    : VideoHandler
        VENDOR_ID       : [0][0][0][0]
        ENCODER         : Lavc61.19.100 libx265
        BPS             : 781392
        DURATION        : 00:24:06.569708333
        NUMBER_OF_FRAMES: 34683
        NUMBER_OF_BYTES : 141292233
        _STATISTICS_WRITING_APP: mkvpropedit v94.0 ('Initiate') 64-bit
        _STATISTICS_WRITING_DATE_UTC: 2026-01-11 17:24:53
        _STATISTICS_TAGS: BPS DURATION NUMBER_OF_FRAMES NUMBER_OF_BYTES
  Stream #0:1: Audio: aac (LC), 48000 Hz, stereo, fltp (default)
      Metadata:
        HANDLER_NAME    : SoundHandler
        VENDOR_ID       : [0][0][0][0]
        ENCODER         : Lavc61.19.100 aac
        BPS             : 193194
        DURATION        : 00:24:06.784000000
        NUMBER_OF_FRAMES: 67819
        NUMBER_OF_BYTES : 34938755
        _STATISTICS_WRITING_APP: mkvpropedit v94.0 ('Initiate') 64-bit
        _STATISTICS_WRITING_DATE_UTC: 2026-01-11 17:24:53
        _STATISTICS_TAGS: BPS DURATION NUMBER_OF_FRAMES NUMBER_OF_BYTES
Input #1, mov,mp4,m4a,3gp,3g2,mj2, from 'F:\Convert\files\[DC] Make Heroine ga Oosugiru - 07_Telegram.mp4':
  Metadata:
    major_brand     : isom
    minor_version   : 512
    compatible_brands: isomiso2avc1mp41
    encoder         : Lavf60.16.100
  Duration: 00:24:06.74, start: 0.000000, bitrate: 3764 kb/s
  Stream #1:0[0x1](und): Video: h264 (High) (avc1 / 0x31637661), yuv420p(tv, bt709, progressive), 1920x1080 [SAR 1:1 DAR 16:9], 3616 kb/s, 23.98 fps, 23.98 tbr, 24k tbn (default)
      Metadata:
        handler_name    : VideoHandler
        vendor_id       : [0][0][0][0]
        encoder         : Lavc60.31.102 h264_qsv
  Stream #1:1[0x2](und): Audio: aac (HE-AACv2) (mp4a / 0x6134706D), 48000 Hz, stereo, fltp, 144 kb/s (default)
      Metadata:
        handler_name    : SoundHandler
        vendor_id       : [0][0][0][0]
Stream mapping:
  Stream #0:0 (hevc) -> settb:default
  Stream #1:0 (h264) -> settb:default
  psnr:default -> Stream #0:0 (wrapped_avframe)
  Stream #0:1 -> #0:1 (aac (native) -> pcm_s16le (native))
Output #0, null, to 'pipe:':
  Metadata:
    COMPATIBLE_BRANDS: isomiso2avc1mp41
    MAJOR_BRAND     : isom
    MINOR_VERSION   : 512
    encoder         : Lavf61.7.100
  Stream #0:0: Video: wrapped_avframe, yuv420p10le(tv, bt709, progressive), 1920x1080 [SAR 1:1 DAR 16:9], q=2-31, 200 kb/s, 23.98 fps, 23.98 tbn
      Metadata:
        encoder         : Lavc61.19.100 wrapped_avframe
  Stream #0:1: Audio: pcm_s16le, 48000 Hz, stereo, s16, 1536 kb/s (default)
      Metadata:
        HANDLER_NAME    : SoundHandler
        VENDOR_ID       : [0][0][0][0]
        _STATISTICS_TAGS: BPS DURATION NUMBER_OF_FRAMES NUMBER_OF_BYTES
        BPS             : 193194
        DURATION        : 00:24:06.784000000
        NUMBER_OF_FRAMES: 67819
        NUMBER_OF_BYTES : 34938755
        _STATISTICS_WRITING_APP: mkvpropedit v94.0 ('Initiate') 64-bit
        _STATISTICS_WRITING_DATE_UTC: 2026-01-11 17:24:53
        encoder         : Lavc61.19.100 pcm_s16le
frame=  134 fps=0.0 q=-0.0 size=N/A time=00:00:05.58 bitrate=N/A speed=10.7x    frame=  292 fps=283 q=-0.0 size=N/A time=00:00:12.17 bitrate=N/A speed=11.8x    frame=  489 fps=317 q=-0.0 size=N/A time=00:00:20.39 bitrate=N/A speed=13.2x    frame=  695 fps=338 q=-0.0 size=N/A time=00:00:28.98 bitrate=N/A speed=14.1x    frame=  888 fps=344 q=-0.0 size=N/A time=00:00:37.03 bitrate=N/A speed=14.4x    frame= 1032 fps=334 q=-0.0 size=N/A time=00:00:43.04 bitrate=N/A speed=13.9x    frame= 1189 fps=330 q=-0.0 size=N/A time=00:00:49.59 bitrate=N/A speed=13.8x    frame= 1347 fps=326 q=-0.0 size=N/A time=00:00:56.18 bitrate=N/A speed=13.6x    frame= 1508 fps=325 q=-0.0 size=N/A time=00:01:02.89 bitrate=N/A speed=13.6x    frame= 1654 fps=321 q=-0.0 size=N/A time=00:01:08.98 bitrate=N/A speed=13.4x    frame= 1823 fps=321 q=-0.0 size=N/A time=00:01:16.03 bitrate=N/A speed=13.4x    frame= 1993 fps=322 q=-0.0 size=N/A time=00:01:23.12 bitrate=N/A speed=13.4x    frame= 2104 fps=314 q=-0.0 size=N/A time=00:01:27.75 bitrate=N/A speed=13.1x    frame= 2265 fps=314 q=-0.0 size=N/A time=00:01:34.46 bitrate=N/A speed=13.1x    frame= 2395 fps=310 q=-0.0 size=N/A time=00:01:39.89 bitrate=N/A speed=12.9x    frame= 2525 fps=306 q=-0.0 size=N/A time=00:01:45.31 bitrate=N/A speed=12.8x    frame= 2692 fps=307 q=-0.0 size=N/A time=00:01:52.27 bitrate=N/A speed=12.8x    frame= 2869 fps=309 q=-0.0 size=N/A time=00:01:59.66 bitrate=N/A speed=12.9x    frame= 3048 fps=311 q=-0.0 size=N/A time=00:02:07.12 bitrate=N/A speed=  13x    frame= 3251 fps=315 q=-0.0 size=N/A time=00:02:15.59 bitrate=N/A speed=13.1x    frame= 3424 fps=316 q=-0.0 size=N/A time=00:02:22.80 bitrate=N/A speed=13.2x    frame= 3618 fps=319 q=-0.0 size=N/A time=00:02:30.90 bitrate=N/A speed=13.3x    frame= 3806 fps=321 q=-0.0 size=N/A time=00:02:38.74 bitrate=N/A speed=13.4x    frame= 4009 fps=324 q=-0.0 size=N/A time=00:02:47.20 bitrate=N/A speed=13.5x    frame= 4198 fps=326 q=-0.0 size=N/A time=00:02:55.09 bitrate=N/A speed=13.6x    frame= 4397 fps=328 q=-0.0 size=N/A time=00:03:03.39 bitrate=N/A speed=13.7x    frame= 4585 fps=329 q=-0.0 size=N/A time=00:03:11.23 bitrate=N/A speed=13.7x    frame= 4772 fps=331 q=-0.0 size=N/A time=00:03:19.03 bitrate=N/A speed=13.8x    frame= 4939 fps=330 q=-0.0 size=N/A time=00:03:25.99 bitrate=N/A speed=13.8x    frame= 5141 fps=332 q=-0.0 size=N/A time=00:03:34.42 bitrate=N/A speed=13.9x    frame= 5336 fps=334 q=-0.0 size=N/A time=00:03:42.55 bitrate=N/A speed=13.9x    frame= 5528 fps=335 q=-0.0 size=N/A time=00:03:50.56 bitrate=N/A speed=  14x    frame= 5731 fps=337 q=-0.0 size=N/A time=00:03:59.03 bitrate=N/A speed=  14x    frame= 5918 fps=338 q=-0.0 size=N/A time=00:04:06.82 bitrate=N/A speed=14.1x    frame= 6087 fps=337 q=-0.0 size=N/A time=00:04:13.87 bitrate=N/A speed=14.1x    frame= 6285 fps=339 q=-0.0 size=N/A time=00:04:22.13 bitrate=N/A speed=14.1x    frame= 6483 fps=340 q=-0.0 size=N/A time=00:04:30.39 bitrate=N/A speed=14.2x    frame= 6682 fps=341 q=-0.0 size=N/A time=00:04:38.69 bitrate=N/A speed=14.2x    frame= 6875 fps=342 q=-0.0 size=N/A time=00:04:46.74 bitrate=N/A speed=14.3x    frame= 7072 fps=343 q=-0.0 size=N/A time=00:04:54.96 bitrate=N/A speed=14.3x    frame= 7258 fps=343 q=-0.0 size=N/A time=00:05:02.71 bitrate=N/A speed=14.3x    frame= 7426 fps=343 q=-0.0 size=N/A time=00:05:09.72 bitrate=N/A speed=14.3x    frame= 7598 fps=343 q=-0.0 size=N/A time=00:05:16.89 bitrate=N/A speed=14.3x    frame= 7792 fps=343 q=-0.0 size=N/A time=00:05:24.99 bitrate=N/A speed=14.3x    frame= 7978 fps=344 q=-0.0 size=N/A time=00:05:32.74 bitrate=N/A speed=14.3x    frame= 8168 fps=344 q=-0.0 size=N/A time=00:05:40.67 bitrate=N/A speed=14.4x    frame= 8364 fps=345 q=-0.0 size=N/A time=00:05:48.84 bitrate=N/A speed=14.4x    frame= 8539 fps=345 q=-0.0 size=N/A time=00:05:56.14 bitrate=N/A speed=14.4x    frame= 8729 fps=346 q=-0.0 size=N/A time=00:06:04.07 bitrate=N/A speed=14.4x    frame= 8879 fps=344 q=-0.0 size=N/A time=00:06:10.32 bitrate=N/A speed=14.4x    frame= 9056 fps=344 q=-0.0 size=N/A time=00:06:17.71 bitrate=N/A speed=14.4x    frame= 9250 fps=345 q=-0.0 size=N/A time=00:06:25.80 bitrate=N/A speed=14.4x    frame= 9446 fps=346 q=-0.0 size=N/A time=00:06:33.97 bitrate=N/A speed=14.4x    frame= 9649 fps=347 q=-0.0 size=N/A time=00:06:42.44 bitrate=N/A speed=14.5x    frame= 9843 fps=347 q=-0.0 size=N/A time=00:06:50.53 bitrate=N/A speed=14.5x    frame=10036 fps=348 q=-0.0 size=N/A time=00:06:58.58 bitrate=N/A speed=14.5x    frame=10229 fps=348 q=-0.0 size=N/A time=00:07:06.63 bitrate=N/A speed=14.5x    frame=10426 fps=349 q=-0.0 size=N/A time=00:07:14.85 bitrate=N/A speed=14.5x    frame=10612 fps=349 q=-0.0 size=N/A time=00:07:22.60 bitrate=N/A speed=14.5x    frame=10798 fps=349 q=-0.0 size=N/A time=00:07:30.36 bitrate=N/A speed=14.5x    frame=10979 fps=349 q=-0.0 size=N/A time=00:07:37.91 bitrate=N/A speed=14.6x    frame=11154 fps=349 q=-0.0 size=N/A time=00:07:45.21 bitrate=N/A speed=14.5x    frame=11355 fps=349 q=-0.0 size=N/A time=00:07:53.59 bitrate=N/A speed=14.6x    frame=11505 fps=349 q=-0.0 size=N/A time=00:07:59.85 bitrate=N/A speed=14.5x    frame=11697 fps=349 q=-0.0 size=N/A time=00:08:07.86 bitrate=N/A speed=14.6x    frame=11898 fps=349 q=-0.0 size=N/A time=00:08:16.24 bitrate=N/A speed=14.6x    frame=12094 fps=350 q=-0.0 size=N/A time=00:08:24.42 bitrate=N/A speed=14.6x    frame=12292 fps=351 q=-0.0 size=N/A time=00:08:32.67 bitrate=N/A speed=14.6x    frame=12485 fps=351 q=-0.0 size=N/A time=00:08:40.72 bitrate=N/A speed=14.6x    frame=12674 fps=351 q=-0.0 size=N/A time=00:08:48.61 bitrate=N/A speed=14.6x    frame=12870 fps=351 q=-0.0 size=N/A time=00:08:56.78 bitrate=N/A speed=14.7x    frame=13053 fps=351 q=-0.0 size=N/A time=00:09:04.41 bitrate=N/A speed=14.7x    frame=13239 fps=352 q=-0.0 size=N/A time=00:09:12.17 bitrate=N/A speed=14.7x    frame=13441 fps=352 q=-0.0 size=N/A time=00:09:20.60 bitrate=N/A speed=14.7x    frame=13630 fps=352 q=-0.0 size=N/A time=00:09:28.48 bitrate=N/A speed=14.7x    frame=13824 fps=352 q=-0.0 size=N/A time=00:09:36.57 bitrate=N/A speed=14.7x    frame=13992 fps=352 q=-0.0 size=N/A time=00:09:43.58 bitrate=N/A speed=14.7x    frame=14169 fps=352 q=-0.0 size=N/A time=00:09:50.96 bitrate=N/A speed=14.7x    frame=14358 fps=352 q=-0.0 size=N/A time=00:09:58.84 bitrate=N/A speed=14.7x    frame=14554 fps=352 q=-0.0 size=N/A time=00:10:07.02 bitrate=N/A speed=14.7x    frame=14750 fps=353 q=-0.0 size=N/A time=00:10:15.19 bitrate=N/A speed=14.7x    frame=14939 fps=353 q=-0.0 size=N/A time=00:10:23.08 bitrate=N/A speed=14.7x    frame=15114 fps=353 q=-0.0 size=N/A time=00:10:30.37 bitrate=N/A speed=14.7x    frame=15297 fps=353 q=-0.0 size=N/A time=00:10:38.01 bitrate=N/A speed=14.7x    frame=15489 fps=353 q=-0.0 size=N/A time=00:10:46.02 bitrate=N/A speed=14.7x    frame=15680 fps=353 q=-0.0 size=N/A time=00:10:53.98 bitrate=N/A speed=14.7x    frame=15874 fps=354 q=-0.0 size=N/A time=00:11:02.07 bitrate=N/A speed=14.7x    frame=16072 fps=354 q=-0.0 size=N/A time=00:11:10.33 bitrate=N/A speed=14.8x    frame=16257 fps=354 q=-0.0 size=N/A time=00:11:18.05 bitrate=N/A speed=14.8x    frame=16449 fps=354 q=-0.0 size=N/A time=00:11:26.06 bitrate=N/A speed=14.8x    frame=16591 fps=353 q=-0.0 size=N/A time=00:11:31.98 bitrate=N/A speed=14.7x    frame=16799 fps=354 q=-0.0 size=N/A time=00:11:40.65 bitrate=N/A speed=14.8x    frame=16993 fps=354 q=-0.0 size=N/A time=00:11:48.74 bitrate=N/A speed=14.8x    frame=17190 fps=354 q=-0.0 size=N/A time=00:11:56.96 bitrate=N/A speed=14.8x    frame=17391 fps=355 q=-0.0 size=N/A time=00:12:05.34 bitrate=N/A speed=14.8x    frame=17579 fps=355 q=-0.0 size=N/A time=00:12:13.19 bitrate=N/A speed=14.8x    frame=17762 fps=355 q=-0.0 size=N/A time=00:12:20.82 bitrate=N/A speed=14.8x    frame=17958 fps=355 q=-0.0 size=N/A time=00:12:28.99 bitrate=N/A speed=14.8x    frame=18160 fps=355 q=-0.0 size=N/A time=00:12:37.42 bitrate=N/A speed=14.8x    frame=18339 fps=355 q=-0.0 size=N/A time=00:12:44.88 bitrate=N/A speed=14.8x    frame=18532 fps=356 q=-0.0 size=N/A time=00:12:52.93 bitrate=N/A speed=14.8x    frame=18721 fps=356 q=-0.0 size=N/A time=00:13:00.82 bitrate=N/A speed=14.8x    frame=18910 fps=356 q=-0.0 size=N/A time=00:13:08.70 bitrate=N/A speed=14.8x    frame=19100 fps=356 q=-0.0 size=N/A time=00:13:16.62 bitrate=N/A speed=14.8x    frame=19285 fps=356 q=-0.0 size=N/A time=00:13:24.34 bitrate=N/A speed=14.8x    frame=19484 fps=356 q=-0.0 size=N/A time=00:13:32.64 bitrate=N/A speed=14.9x    frame=19685 fps=357 q=-0.0 size=N/A time=00:13:41.02 bitrate=N/A speed=14.9x    frame=19884 fps=357 q=-0.0 size=N/A time=00:13:49.32 bitrate=N/A speed=14.9x    frame=20083 fps=357 q=-0.0 size=N/A time=00:13:57.62 bitrate=N/A speed=14.9x    frame=20268 fps=357 q=-0.0 size=N/A time=00:14:05.34 bitrate=N/A speed=14.9x    frame=20460 fps=357 q=-0.0 size=N/A time=00:14:13.35 bitrate=N/A speed=14.9x    frame=20642 fps=357 q=-0.0 size=N/A time=00:14:20.94 bitrate=N/A speed=14.9x    frame=20841 fps=357 q=-0.0 size=N/A time=00:14:29.24 bitrate=N/A speed=14.9x    frame=21039 fps=358 q=-0.0 size=N/A time=00:14:37.50 bitrate=N/A speed=14.9x    frame=21244 fps=358 q=-0.0 size=N/A time=00:14:46.05 bitrate=N/A speed=14.9x    frame=21427 fps=358 q=-0.0 size=N/A time=00:14:53.68 bitrate=N/A speed=14.9x    frame=21631 fps=358 q=-0.0 size=N/A time=00:15:02.19 bitrate=N/A speed=14.9x    frame=21787 fps=358 q=-0.0 size=N/A time=00:15:08.69 bitrate=N/A speed=14.9x    frame=21973 fps=358 q=-0.0 size=N/A time=00:15:16.45 bitrate=N/A speed=14.9x    frame=22167 fps=358 q=-0.0 size=N/A time=00:15:24.54 bitrate=N/A speed=14.9x    frame=22367 fps=358 q=-0.0 size=N/A time=00:15:32.89 bitrate=N/A speed=14.9x    frame=22563 fps=358 q=-0.0 size=N/A time=00:15:41.06 bitrate=N/A speed=14.9x    frame=22758 fps=358 q=-0.0 size=N/A time=00:15:49.19 bitrate=N/A speed=  15x    frame=22941 fps=358 q=-0.0 size=N/A time=00:15:56.83 bitrate=N/A speed=  15x    frame=23136 fps=359 q=-0.0 size=N/A time=00:16:04.96 bitrate=N/A speed=  15x    frame=23336 fps=359 q=-0.0 size=N/A time=00:16:13.30 bitrate=N/A speed=  15x    frame=23539 fps=359 q=-0.0 size=N/A time=00:16:21.77 bitrate=N/A speed=  15x    frame=23737 fps=359 q=-0.0 size=N/A time=00:16:30.03 bitrate=N/A speed=  15x    frame=23926 fps=359 q=-0.0 size=N/A time=00:16:37.91 bitrate=N/A speed=  15x    frame=24120 fps=359 q=-0.0 size=N/A time=00:16:46.00 bitrate=N/A speed=  15x    frame=24300 fps=359 q=-0.0 size=N/A time=00:16:53.51 bitrate=N/A speed=  15x    frame=24473 fps=359 q=-0.0 size=N/A time=00:17:00.72 bitrate=N/A speed=  15x    frame=24668 fps=359 q=-0.0 size=N/A time=00:17:08.86 bitrate=N/A speed=  15x    frame=24870 fps=360 q=-0.0 size=N/A time=00:17:17.28 bitrate=N/A speed=  15x    frame=25071 fps=360 q=-0.0 size=N/A time=00:17:25.66 bitrate=N/A speed=  15x    frame=25269 fps=360 q=-0.0 size=N/A time=00:17:33.92 bitrate=N/A speed=  15x    frame=25459 fps=360 q=-0.0 size=N/A time=00:17:41.85 bitrate=N/A speed=  15x    frame=25656 fps=360 q=-0.0 size=N/A time=00:17:50.06 bitrate=N/A speed=  15x    frame=25847 fps=360 q=-0.0 size=N/A time=00:17:58.03 bitrate=N/A speed=  15x    frame=26049 fps=361 q=-0.0 size=N/A time=00:18:06.46 bitrate=N/A speed=  15x    frame=26243 fps=361 q=-0.0 size=N/A time=00:18:14.55 bitrate=N/A speed=  15x    frame=26441 fps=361 q=-0.0 size=N/A time=00:18:22.81 bitrate=N/A speed=  15x    frame=26624 fps=361 q=-0.0 size=N/A time=00:18:30.44 bitrate=N/A speed=  15x    frame=26828 fps=361 q=-0.0 size=N/A time=00:18:38.95 bitrate=N/A speed=15.1x    frame=26964 fps=360 q=-0.0 size=N/A time=00:18:44.62 bitrate=N/A speed=  15x    frame=27131 fps=360 q=-0.0 size=N/A time=00:18:51.58 bitrate=N/A speed=  15x    frame=27309 fps=360 q=-0.0 size=N/A time=00:18:59.01 bitrate=N/A speed=  15x    frame=27502 fps=360 q=-0.0 size=N/A time=00:19:07.06 bitrate=N/A speed=  15x    frame=27687 fps=360 q=-0.0 size=N/A time=00:19:14.77 bitrate=N/A speed=  15x    frame=27880 fps=360 q=-0.0 size=N/A time=00:19:22.82 bitrate=N/A speed=  15x    frame=28067 fps=360 q=-0.0 size=N/A time=00:19:30.62 bitrate=N/A speed=  15x    frame=28257 fps=360 q=-0.0 size=N/A time=00:19:38.55 bitrate=N/A speed=  15x    frame=28452 fps=360 q=-0.0 size=N/A time=00:19:46.68 bitrate=N/A speed=  15x    frame=28649 fps=361 q=-0.0 size=N/A time=00:19:54.90 bitrate=N/A speed=  15x    frame=28824 fps=360 q=-0.0 size=N/A time=00:20:02.20 bitrate=N/A speed=  15x    frame=28998 fps=360 q=-0.0 size=N/A time=00:20:09.45 bitrate=N/A speed=  15x    frame=29163 fps=360 q=-0.0 size=N/A time=00:20:16.34 bitrate=N/A speed=  15x    frame=29345 fps=360 q=-0.0 size=N/A time=00:20:23.93 bitrate=N/A speed=  15x    frame=29494 fps=360 q=-0.0 size=N/A time=00:20:30.14 bitrate=N/A speed=  15x    frame=29675 fps=359 q=-0.0 size=N/A time=00:20:37.69 bitrate=N/A speed=  15x    frame=29844 fps=359 q=-0.0 size=N/A time=00:20:44.74 bitrate=N/A speed=  15x    frame=30016 fps=359 q=-0.0 size=N/A time=00:20:51.91 bitrate=N/A speed=  15x    frame=30203 fps=359 q=-0.0 size=N/A time=00:20:59.71 bitrate=N/A speed=  15x    frame=30382 fps=359 q=-0.0 size=N/A time=00:21:07.18 bitrate=N/A speed=  15x    frame=30574 fps=359 q=-0.0 size=N/A time=00:21:15.19 bitrate=N/A speed=  15x    frame=30744 fps=359 q=-0.0 size=N/A time=00:21:22.28 bitrate=N/A speed=  15x    frame=30863 fps=358 q=-0.0 size=N/A time=00:21:27.24 bitrate=N/A speed=14.9x    frame=31043 fps=358 q=-0.0 size=N/A time=00:21:34.75 bitrate=N/A speed=14.9x    frame=31237 fps=358 q=-0.0 size=N/A time=00:21:42.84 bitrate=N/A speed=14.9x    frame=31411 fps=358 q=-0.0 size=N/A time=00:21:50.10 bitrate=N/A speed=14.9x    frame=31604 fps=358 q=-0.0 size=N/A time=00:21:58.15 bitrate=N/A speed=14.9x    frame=31786 fps=358 q=-0.0 size=N/A time=00:22:05.74 bitrate=N/A speed=14.9x    frame=31962 fps=358 q=-0.0 size=N/A time=00:22:13.08 bitrate=N/A speed=14.9x    frame=32160 fps=358 q=-0.0 size=N/A time=00:22:21.34 bitrate=N/A speed=14.9x    frame=32353 fps=358 q=-0.0 size=N/A time=00:22:29.38 bitrate=N/A speed=14.9x    frame=32548 fps=358 q=-0.0 size=N/A time=00:22:37.52 bitrate=N/A speed=14.9x    frame=32704 fps=358 q=-0.0 size=N/A time=00:22:44.02 bitrate=N/A speed=14.9x    frame=32864 fps=358 q=-0.0 size=N/A time=00:22:50.70 bitrate=N/A speed=14.9x    frame=33046 fps=358 q=-0.0 size=N/A time=00:22:58.29 bitrate=N/A speed=14.9x    frame=33186 fps=357 q=-0.0 size=N/A time=00:23:04.13 bitrate=N/A speed=14.9x    frame=33350 fps=357 q=-0.0 size=N/A time=00:23:10.97 bitrate=N/A speed=14.9x    frame=33518 fps=357 q=-0.0 size=N/A time=00:23:17.97 bitrate=N/A speed=14.9x    frame=33668 fps=357 q=-0.0 size=N/A time=00:23:24.23 bitrate=N/A speed=14.9x    frame=33802 fps=356 q=-0.0 size=N/A time=00:23:29.82 bitrate=N/A speed=14.9x    frame=33936 fps=356 q=-0.0 size=N/A time=00:23:35.41 bitrate=N/A speed=14.8x    frame=34101 fps=355 q=-0.0 size=N/A time=00:23:42.29 bitrate=N/A speed=14.8x    frame=34260 fps=355 q=-0.0 size=N/A time=00:23:48.92 bitrate=N/A speed=14.8x    frame=34390 fps=355 q=-0.0 size=N/A time=00:23:54.34 bitrate=N/A speed=14.8x    frame=34547 fps=354 q=-0.0 size=N/A time=00:24:00.89 bitrate=N/A speed=14.8x    [Parsed_psnr_16 @ 00000207dc074540] PSNR y:48.963925 u:50.335339 v:50.386165 average:49.381508 min:38.009039 max:inf
[out#0/null @ 00000207ceaffe80] video:14903KiB audio:271276KiB subtitle:0KiB other streams:0KiB global headers:0KiB muxing overhead: unknown
frame=34683 fps=354 q=-0.0 Lsize=N/A time=00:24:06.57 bitrate=N/A speed=14.8x    
